ModelForces
version=1
nRows=5
nColumns=67
inDegrees=no

This file contains the forces exerted on a model during a simulation.

A force is a generalized force, meaning that it can be either a force (N) or a torque (Nm).

Units are S.I. units (second, meters, Newtons, ...)
Angles are in degrees.

endheader
time	hamstrings_r	bifemsh_r	glut_max_r	iliopsoas_r	rect_fem_r	vasti_r	gastroc_r	soleus_r	tib_ant_r	hamstrings_l	bifemsh_l	glut_max_l	iliopsoas_l	rect_fem_l	vasti_l	gastroc_l	soleus_l	tib_ant_l	foot_r.ground.force.X	foot_r.ground.force.Y	foot_r.ground.force.Z	foot_r.ground.torque.X	foot_r.ground.torque.Y	foot_r.ground.torque.Z	foot_r.calcn_r.force.X	foot_r.calcn_r.force.Y	foot_r.calcn_r.force.Z	foot_r.calcn_r.torque.X	foot_r.calcn_r.torque.Y	foot_r.calcn_r.torque.Z	foot_r.toes_r.force.X	foot_r.toes_r.force.Y	foot_r.toes_r.force.Z	foot_r.toes_r.torque.X	foot_r.toes_r.torque.Y	foot_r.toes_r.torque.Z	foot_l.ground.force.X	foot_l.ground.force.Y	foot_l.ground.force.Z	foot_l.ground.torque.X	foot_l.ground.torque.Y	foot_l.ground.torque.Z	foot_l.calcn_l.force.X	foot_l.calcn_l.force.Y	foot_l.calcn_l.force.Z	foot_l.calcn_l.torque.X	foot_l.calcn_l.torque.Y	foot_l.calcn_l.torque.Z	foot_l.toes_l.force.X	foot_l.toes_l.force.Y	foot_l.toes_l.force.Z	foot_l.toes_l.torque.X	foot_l.toes_l.torque.Y	foot_l.toes_l.torque.Z	HipLimit_r	PotentialEnergy	HipLimit_l	PotentialEnergy	KneeLimit_r	PotentialEnergy	KneeLimit_l	PotentialEnergy	AnkleLimit_r	PotentialEnergy	AnkleLimit_l	PotentialEnergy
      0.21956333	   1843.31082442	    324.96388277	     17.02189754	    288.05652764	   1101.83460063	    105.76589318	    415.93325712	    567.69776835	      4.45515898	     40.40611530	    136.85877689	    220.78787519	   1206.73222462	     95.49585672	    298.28700338	   1229.53931748	    458.89799732	   1510.26808662	   -157.37765065	  -1275.69593085	      0.00000000	    116.98524891	    -14.43562666	    225.57448855	    112.78335963	    941.31916379	      0.00000000	      0.00000000	      0.00000000	     20.23319247	     44.59429102	    334.37676706	      0.00000000	      0.00000000	      0.00000000	      7.64322557	      0.00000000	      0.00000000	      0.00000000	      0.00000000	      0.00000000	      0.00000000	      0.00000000	      0.00000000	      0.00000000	      0.00000000	      0.00000000	      0.00000000	      0.00000000	      0.00000000	      0.00000000	      0.00000000	      0.00000000	      0.00000000	    153.37000889	      5.02276151	      0.00000000	      0.00000000	    -15.66734633	      0.40563120	      0.00000000	      0.00000000	      0.00000000	      0.00000000	      0.00000000	      0.00000000
      0.21964259	   1843.13401750	    324.90317669	     17.03735358	    288.08765483	   1102.09705062	    105.79824761	    416.09348813	    568.06665864	      4.45480851	     40.45089128	    137.16848804	    222.88553722	   1206.40807686	     95.53972810	    299.02381541	   1229.37241075	    458.69950547	   1511.00228939	   -157.08680507	  -1275.53361112	      0.00000000	    116.97054605	    -14.40893669	    225.52272857	    112.58590808	    941.03053731	      0.00000000	      0.00000000	      0.00000000	     20.22898796	     44.50089698	    334.50307381	      0.00000000	      0.00000000	      0.00000000	      7.64650014	      0.00000000	      0.00000000	      0.00000000	      0.00000000	      0.00000000	      0.00000000	      0.00000000	      0.00000000	      0.00000000	      0.00000000	      0.00000000	      0.00000000	      0.00000000	      0.00000000	      0.00000000	      0.00000000	      0.00000000	      0.00000000	    153.57629247	      5.03851783	      0.00000000	      0.00000000	    -15.50786143	      0.40135657	      0.00000000	      0.00000000	      0.00000000	      0.00000000	      0.00000000	      0.00000000
      0.21972185	   1842.95734304	    324.84251580	     17.05283719	    288.11867569	   1102.35950069	    105.83063299	    416.25365966	    568.43573165	      4.45445804	     40.49571696	    137.47825173	    222.01403318	   1206.08425202	     95.58290279	    299.76317808	   1229.20283687	    458.50130709	   1511.73496992	   -156.79790494	  -1275.36919029	      0.00000000	    116.95565062	    -14.38242506	    225.47052814	    112.38995215	    940.74026454	      0.00000000	      0.00000000	      0.00000000	     20.22472559	     44.40795279	    334.62892575	      0.00000000	      0.00000000	      0.00000000	      7.64976374	      0.00000000	      0.00000000	      0.00000000	      0.00000000	      0.00000000	      0.00000000	      0.00000000	      0.00000000	      0.00000000	      0.00000000	      0.00000000	      0.00000000	      0.00000000	      0.00000000	      0.00000000	      0.00000000	      0.00000000	      0.00000000	    153.78182380	      5.05427135	      0.00000000	      0.00000000	    -15.34910046	      0.39710802	      0.00000000	      0.00000000	      0.00000000	      0.00000000	      0.00000000	      0.00000000
      0.21980112	   1842.78079743	    324.78189920	     17.06834812	    288.14959027	   1102.62195670	    105.86304951	    416.41377178	    568.80498762	      4.45410742	     40.54059161	    137.78807747	    222.90850704	   1205.76077378	     95.62548068	    300.50509482	   1229.03079483	    458.30351799	   1512.46574729	   -156.51058838	  -1275.20353226	      0.00000000	    116.94064155	    -14.35605864	    225.41809703	    112.19517205	    940.44924338	      0.00000000	      0.00000000	      0.00000000	     20.22043279	     44.31541634	    334.75428888	      0.00000000	      0.00000000	      0.00000000	      7.65301583	      0.00000000	      0.00000000	      0.00000000	      0.00000000	      0.00000000	      0.00000000	      0.00000000	      0.00000000	      0.00000000	      0.00000000	      0.00000000	      0.00000000	      0.00000000	      0.00000000	      0.00000000	      0.00000000	      0.00000000	      0.00000000	    153.98656592	      5.07002189	      0.00000000	      0.00000000	    -15.19106168	      0.39288557	      0.00000000	      0.00000000	      0.00000000	      0.00000000	      0.00000000	      0.00000000
      0.21990653	   1842.54620611	    324.70135286	     17.08901957	    288.19053719	   1102.97101323	    105.90620974	    416.62661155	    569.29634184	      4.45364055	     40.60034534	    138.20022314	    222.06848083	   1205.33114529	     95.68131753	    301.49571086	   1228.79850858	    458.04132308	   1513.43401206	   -156.13132940	  -1274.98047635	      0.00000000	    116.92042906	    -14.32125461	    225.34780888	    111.93829239	    940.06019158	      0.00000000	      0.00000000	      0.00000000	     20.21464960	     44.19303702	    334.92028477	      0.00000000	      0.00000000	      0.00000000	      7.65732337	      0.00000000	      0.00000000	      0.00000000	      0.00000000	      0.00000000	      0.00000000	      0.00000000	      0.00000000	      0.00000000	      0.00000000	      0.00000000	      0.00000000	      0.00000000	      0.00000000	      0.00000000	      0.00000000	      0.00000000	      0.00000000	    154.25766185	      5.09096339	      0.00000000	      0.00000000	    -14.98201547	      0.38731063	      0.00000000	      0.00000000	      0.00000000	      0.00000000	      0.00000000	      0.00000000
